# xmcd
#
# Track frame offsets:
#	150
#	16832
#	33639
#	49625
#
# Disc length: 936 seconds
#
# Revision: 4
# Processed by: cddbd v1.5PL3 Copyright (c) Steve Scherf et al.
# Submitted via: EasyCDDAExtractor 4.6.9.1
#
DISCID=2703a604
DTITLE=Missy Elliott - I'm Really Hot
DYEAR=2004
DGENRE=R&B
TTITLE0=I'm Really Hot (Explicit Version)
TTITLE1=I'm Really Hot (Instrumental)
TTITLE2=Hurt Sumthin (Non Album Track)
TTITLE3=Pass That Dutch (Remix Explicit) (feat Busta Rhymes)
EXTD=
EXTT0=
EXTT1=
EXTT2=
EXTT3=
PLAYORDER=
